<svg width="232" height="125" viewBox="0 0 232 125" fill="none" xmlns="http://www.w3.org/2000/svg">
<g clip-path="url(#clip0_81_160)">
<path d="M191.039 28.3225C187.893 28.6916 184.61 29.145 181.231 29.6639L189.814 24.294L160.206 25.3017L144.487 0.234985L145.472 29.8064L126.397 41.747C120.654 43.3275 114.829 45.0176 108.957 46.8127C78.6693 56.0727 50.8262 66.932 30.569 77.3833C8.80052 88.6171 -1.19269 97.7328 0.870433 104.481C2.93356 111.229 16.3157 113.198 40.6445 110.339C45.1059 109.815 49.8335 109.132 54.7606 108.309L67.781 107.867L78.5113 124.975L77.8401 104.791L80.372 103.207C93.8295 100.133 108.142 96.3075 122.726 91.8485C153.015 82.5884 180.857 71.7292 201.115 61.2779C222.883 50.0441 232.876 40.9285 230.813 34.1803C228.75 27.4321 215.368 25.4631 191.039 28.3225ZM121.498 87.8328C110.946 91.0589 100.948 93.8375 91.5571 96.2065L94.9735 94.0673L74.7597 94.7555L64.0279 77.6416L64.7006 97.8309L54.8169 104.016C24.6068 109.054 6.35374 108.073 4.88081 103.255C2.51836 95.5276 41.4345 71.8537 110.181 50.8356C116.9 48.7814 123.386 46.9136 129.643 45.2122L149.965 44.5213L165.684 69.588L164.699 40.0166L171.887 35.5145C205.057 29.5167 225.239 30.332 226.792 35.4098C229.154 43.137 190.24 66.8164 121.498 87.8328Z" fill="#EAF586"/>
</g>
<defs>
<clipPath id="clip0_81_160">
<rect width="232" height="125" fill="white"/>
</clipPath>
</defs>
</svg>
